<?xml version="1.0" standalone="no"?>
<!DOCTYPE svg PUBLIC "-//W3C//DTD SVG 20010904//EN"
 "http://www.w3.org/TR/2001/REC-SVG-20010904/DTD/svg10.dtd">
<svg version="1.0" xmlns="http://www.w3.org/2000/svg"
 width="1280.000000pt" height="903.000000pt" viewBox="0 0 1280.000000 903.000000"
 preserveAspectRatio="xMidYMid meet">
<g transform="translate(0.000000,903.000000) scale(0.100000,-0.100000)"
fill="#f44336" stroke="none">
<path d="M9059 8966 c-188 -99 -220 -120 -340 -217 -275 -224 -556 -535 -746
-826 -262 -400 -452 -948 -472 -1358 -5 -104 -9 -130 -21 -132 -16 -3 -40 30
-278 382 -245 362 -389 532 -499 587 -29 15 -94 62 -145 105 -181 153 -280
222 -560 385 -296 173 -459 219 -662 184 -227 -38 -539 -195 -670 -336 -101
-109 -180 -284 -246 -546 -62 -246 -126 -359 -316 -564 -155 -167 -193 -239
-215 -409 -32 -235 47 -558 202 -831 168 -295 547 -752 867 -1043 202 -184
521 -370 895 -522 65 -26 116 -53 114 -59 -8 -24 -297 -85 -549 -116 -532 -65
-1033 -37 -1553 90 -579 140 -1081 365 -1925 863 -264 155 -863 519 -1190 722
-261 162 -368 219 -430 230 -33 6 -39 2 -111 -67 -42 -40 -91 -98 -109 -128
-18 -30 -48 -68 -66 -83 -19 -16 -34 -32 -34 -36 0 -16 211 -260 284 -328 114
-107 233 -184 292 -191 40 -4 72 -20 167 -83 65 -43 179 -124 253 -181 382
-291 621 -442 1009 -633 472 -232 774 -348 1170 -445 273 -67 583 -115 925
-141 197 -15 742 -15 925 0 288 23 561 84 865 191 96 34 185 64 198 67 42 10
22 -21 -59 -92 -163 -141 -268 -275 -453 -577 -166 -273 -231 -419 -296 -662
-40 -151 -58 -272 -70 -462 -16 -259 -4 -357 73 -601 73 -232 59 -211 289
-444 148 -150 194 -181 341 -223 47 -14 128 -30 179 -35 113 -11 530 -115 710
-177 72 -25 181 -68 242 -95 156 -71 196 -84 334 -108 150 -26 199 -26 351 -1
269 45 518 144 750 297 129 85 309 270 403 413 136 210 179 302 251 545 57
194 72 289 71 460 -1 230 -46 429 -168 749 -46 118 -24 109 147 -60 540 -535
788 -689 1332 -827 319 -82 400 -89 625 -62 245 31 402 76 587 169 306 153
468 310 562 546 80 201 111 368 111 596 0 131 3 164 15 174 8 7 15 22 15 34 0
12 33 67 74 121 101 134 156 242 214 420 92 279 87 257 74 354 -7 47 -15 122
-18 166 -5 52 -17 105 -35 152 -16 39 -29 78 -29 85 0 17 -96 181 -154 262
-122 171 -405 373 -682 487 -113 47 -136 52 -329 79 -296 41 -619 45 -866 10
-81 -12 -102 -4 -78 28 117 160 297 463 390 657 115 239 195 469 236 680 26
129 26 535 0 649 -57 259 -207 584 -385 836 -104 147 -231 253 -462 385 -74
42 -155 93 -180 113 -75 61 -177 171 -266 289 -46 62 -94 119 -106 127 -73 47
-309 78 -558 75 l-95 -2 -116 -61z m688 -77 c20 -6 60 -40 104 -87 108 -116
104 -102 80 -229 -12 -59 -21 -122 -21 -140 0 -40 36 -103 60 -103 28 0 43
-25 30 -50 -14 -26 -5 -57 22 -71 16 -9 23 -7 35 11 12 17 21 20 44 15 26 -6
29 -4 29 19 0 20 5 26 23 26 12 0 33 -7 45 -16 29 -20 52 -4 52 37 0 25 -4 29
-28 29 -17 0 -37 9 -48 21 -18 20 -18 21 4 38 27 20 20 31 -19 31 -15 0 -41
11 -57 25 -38 32 -48 31 -60 -4 -11 -32 -55 -67 -72 -56 -13 8 -13 38 0 51 5
5 15 45 21 89 6 44 15 84 20 89 13 15 70 -44 67 -69 -2 -15 3 -21 26 -23 16
-2 58 -26 94 -53 36 -27 69 -49 73 -49 5 0 82 -55 171 -122 173 -130 345 -291
397 -373 65 -102 127 -351 172 -688 l23 -169 -24 -141 c-32 -196 -127 -536
-158 -570 -9 -11 -15 -30 -14 -43 6 -41 -28 -92 -98 -149 -38 -30 -75 -55 -83
-55 -8 0 -22 9 -32 20 -21 23 -75 27 -75 6 0 -8 -10 -40 -22 -72 -16 -42 -31
-62 -55 -76 -25 -15 -33 -27 -33 -49 0 -33 -30 -46 -70 -31 -14 5 -34 6 -45 1
-11 -4 -32 -8 -47 -8 -22 -1 -28 4 -28 20 0 37 20 59 64 70 23 6 56 21 72 35
l29 24 -40 -6 c-31 -4 -44 -2 -54 10 -17 20 -45 21 -61 1 -7 -8 -41 -28 -75
-44 -47 -22 -64 -36 -67 -53 -2 -15 -13 -26 -33 -32 -85 -25 -115 -40 -147
-72 -30 -29 -53 -39 -143 -64 -80 -21 -114 -26 -132 -19 -20 7 -23 12 -14 23
6 7 25 16 41 20 27 5 29 8 19 24 -16 26 -5 52 23 52 13 0 31 7 41 14 10 8 26
12 36 9 9 -2 23 2 30 10 10 13 8 16 -8 22 -38 12 -22 31 37 43 78 16 122 16
122 -2 0 -7 -17 -21 -37 -30 l-38 -16 50 5 c61 6 82 24 66 54 -22 41 -54 53
-103 41 -51 -13 -114 -10 -112 5 1 6 39 23 85 40 67 23 100 29 162 29 56 -1
81 -5 87 -15 7 -10 13 -4 25 25 16 37 17 38 57 33 30 -4 48 -1 67 13 14 10 73
32 130 49 98 29 106 30 123 14 17 -16 20 -15 46 5 15 12 37 28 50 34 27 14 25
44 -3 41 -11 0 -71 -15 -134 -32 -117 -32 -175 -38 -186 -21 -9 15 -36 12 -55
-5 -9 -8 -34 -17 -55 -20 -21 -2 -50 -15 -64 -28 -48 -44 -142 -62 -159 -31
-8 14 -14 15 -46 4 -20 -6 -44 -23 -53 -36 -19 -29 -53 -32 -53 -5 0 29 -47
37 -74 13 -31 -28 -152 -55 -194 -43 -18 5 -64 7 -102 4 -79 -7 -100 3 -100
48 0 15 -5 31 -11 35 -19 11 -30 -19 -24 -63 5 -35 3 -43 -9 -43 -9 0 -16 4
-16 10 0 5 -14 17 -31 25 -24 13 -30 22 -27 43 2 17 10 28 23 31 29 5 36 21
29 63 -5 34 -3 39 19 47 27 11 37 36 37 99 0 25 10 62 24 90 66 131 316 859
367 1067 6 28 17 57 24 65 7 8 13 33 14 55 0 22 6 63 13 90 10 39 18 51 36 53
24 4 28 22 11 54 -10 19 1 266 17 366 8 52 -9 37 -49 -40 -36 -71 -37 -76 -37
-181 0 -90 -3 -109 -16 -114 -23 -8 -30 9 -44 99 -7 43 -16 81 -21 84 -12 7
-11 -54 1 -140 9 -58 8 -72 -5 -85 -8 -8 -17 -12 -21 -9 -7 8 -29 119 -38 201
-4 31 -11 57 -16 57 -18 0 -23 -98 -10 -201 7 -58 9 -125 5 -148 -6 -37 -4
-45 19 -66 14 -13 26 -34 26 -47 0 -13 7 -36 15 -52 8 -15 15 -39 15 -52 0
-40 -72 -318 -86 -335 -8 -8 -14 -26 -14 -38 0 -26 -84 -245 -138 -361 -19
-41 -54 -116 -77 -166 -46 -100 -63 -118 -79 -89 -19 31 -54 70 -59 65 -3 -3
-7 -25 -9 -49 -3 -43 -2 -45 30 -53 22 -6 32 -14 32 -28 0 -31 -63 -150 -79
-150 -21 0 -40 -32 -35 -60 4 -18 -25 -87 -101 -242 -58 -120 -109 -218 -113
-218 -4 0 -23 18 -43 40 -31 34 -41 39 -66 34 -20 -4 -33 0 -44 13 -9 10 -51
115 -94 233 -72 200 -103 276 -92 225 3 -11 25 -96 50 -190 62 -235 97 -387
91 -397 -8 -12 -40 -10 -52 5 -6 7 -20 38 -32 70 -12 31 -26 57 -31 57 -6 0
-7 -9 -4 -21 51 -159 50 -197 -4 -141 -35 38 -41 39 -41 8 0 -54 -30 -36 -69
42 -30 59 -42 52 -24 -14 17 -67 14 -99 -9 -99 -9 0 -20 -4 -24 -8 -13 -13
-24 -7 -34 19 -11 27 -27 28 -44 1 -7 -11 -6 -29 6 -64 9 -26 24 -83 33 -126
16 -77 40 -117 69 -117 8 0 21 -19 31 -42 13 -34 14 -46 4 -65 -10 -19 -9 -26
6 -43 9 -10 33 -24 51 -30 34 -12 64 -52 64 -86 0 -11 -5 -14 -17 -9 -39 16
-49 14 -66 -11 -24 -32 -15 -71 18 -86 30 -13 34 -52 8 -80 -9 -11 -17 -31
-18 -45 0 -14 -6 -28 -12 -30 -15 -5 -91 110 -100 149 -3 15 -12 33 -19 39
-11 9 -14 6 -14 -16 0 -19 20 -55 60 -107 61 -81 70 -106 47 -130 -7 -7 -16
-21 -20 -30 -3 -10 -11 -18 -17 -18 -5 0 -10 -13 -10 -29 0 -40 -22 -55 -66
-46 l-37 6 32 -42 31 -43 -24 -40 c-14 -23 -32 -41 -41 -41 -12 0 -35 30 -68
90 -41 74 -48 94 -40 115 5 14 18 26 30 28 26 4 35 36 20 69 -9 20 -8 27 4 37
32 23 29 54 -10 104 -21 26 -52 61 -69 77 -18 16 -32 37 -32 45 0 9 -5 21 -11
27 -6 6 -17 22 -23 35 -9 17 -23 25 -55 29 -49 6 -63 22 -55 62 5 25 3 27 -24
27 -30 0 -52 29 -52 71 0 11 -4 17 -10 14 -14 -8 -59 43 -66 74 -4 14 -28 74
-55 132 -169 371 -221 577 -222 894 -1 337 85 648 293 1060 115 227 310 547
448 735 78 106 273 312 351 370 78 59 265 146 406 188 103 32 353 89 415 95
47 5 137 -2 177 -14z m-4163 -1010 c110 -26 146 -43 146 -69 0 -11 5 -20 12
-20 6 0 20 -8 30 -17 16 -15 18 -15 13 -1 -10 24 11 31 44 13 39 -20 44 -30
29 -54 -11 -17 -9 -23 9 -40 11 -11 23 -25 24 -30 2 -6 19 -13 37 -17 25 -5
32 -3 32 9 0 35 27 25 149 -56 228 -152 373 -292 281 -272 -25 5 -30 3 -31
-12 -1 -10 -2 -34 -4 -53 -2 -24 4 -43 20 -62 12 -14 26 -44 29 -65 4 -21 20
-63 36 -93 15 -31 36 -81 45 -113 9 -31 20 -59 24 -62 9 -5 21 42 21 81 0 13
5 24 10 24 6 0 10 -4 10 -10 0 -5 15 -24 34 -42 18 -18 52 -70 75 -115 41 -80
43 -82 69 -72 36 14 66 4 80 -26 20 -43 16 -58 -13 -51 -18 5 -25 2 -25 -8 0
-30 13 -46 37 -46 17 0 42 -18 79 -54 29 -30 61 -56 70 -58 8 -2 26 -28 39
-58 21 -49 29 -57 74 -77 57 -25 68 -41 51 -73 -9 -18 -8 -25 6 -41 11 -12 26
-18 37 -15 11 2 30 1 43 -4 29 -12 30 -1 4 33 -11 14 -20 36 -20 49 0 12 -9
37 -20 53 -24 36 -27 78 -6 73 20 -4 156 -185 156 -207 0 -29 -54 -72 -99 -78
-34 -5 -42 -10 -48 -31 -4 -19 0 -29 18 -43 22 -16 23 -20 11 -51 -24 -69 -13
-103 38 -110 20 -2 28 -13 40 -51 20 -62 53 -82 91 -54 24 17 29 17 62 3 21
-8 37 -19 37 -25 0 -16 -51 -71 -66 -71 -8 0 -14 -10 -14 -23 0 -17 10 -28 35
-40 20 -9 38 -24 41 -32 9 -22 -4 -65 -20 -65 -27 0 -26 -30 2 -55 23 -22 25
-28 15 -45 -9 -14 -10 -27 -3 -45 11 -29 14 -128 3 -138 -10 -11 -33 13 -33
35 0 10 -11 29 -24 41 -14 13 -28 35 -31 49 -6 22 -2 29 20 40 l27 14 -46 37
c-25 21 -50 53 -57 72 -7 19 -16 35 -20 35 -11 0 -30 -90 -24 -111 10 -32 -23
-36 -53 -6 -20 21 -23 29 -14 40 19 22 -43 96 -81 96 -22 1 -30 8 -38 31 -11
31 -26 39 -35 17 -7 -19 20 -89 39 -101 12 -8 23 -7 39 3 19 12 23 11 35 -5 8
-11 12 -31 9 -46 -4 -21 0 -30 14 -38 13 -7 20 -21 20 -40 0 -16 7 -33 16 -38
19 -10 11 -32 -12 -32 -19 0 -18 -6 7 -40 14 -18 20 -37 16 -51 -3 -12 0 -50
8 -83 26 -109 16 -166 -22 -134 -15 11 -16 11 -10 -6 15 -39 -31 -60 -69 -32
-19 14 -19 15 0 29 15 11 17 17 7 35 -9 16 -8 24 6 38 16 16 16 16 -2 11 -11
-3 -33 -8 -49 -12 -27 -6 -27 -7 -11 -25 17 -19 13 -40 -7 -40 -15 0 -129 69
-160 98 -14 13 -29 24 -32 23 -24 -4 -41 3 -75 34 -21 19 -48 35 -59 35 -40 0
-377 193 -432 247 -19 19 -196 139 -393 267 -466 302 -489 319 -438 333 26 7
26 7 2 41 -11 15 -27 56 -36 92 -9 36 -25 74 -36 86 -13 13 -27 63 -44 150
-15 71 -37 154 -50 184 -13 30 -33 96 -44 145 -10 50 -25 104 -33 120 -12 29
-13 28 -16 -35 -3 -79 54 -373 99 -500 16 -46 29 -92 29 -102 0 -21 -41 -44
-63 -35 -8 3 -40 94 -77 219 -71 239 -83 275 -75 210 3 -24 1 -71 -5 -104 -14
-73 -7 -106 24 -117 18 -7 27 -26 45 -95 24 -91 22 -113 -9 -96 -10 6 -112 83
-227 172 -114 89 -239 185 -278 213 -71 53 -176 153 -202 191 -12 19 -10 30
15 95 17 41 40 110 52 154 44 159 93 302 136 393 76 164 176 241 481 369 167
70 242 78 397 42z m908 -596 c33 -30 16 -64 -22 -43 -12 6 -20 21 -20 35 0 29
16 32 42 8z m105 -105 c27 -25 29 -41 8 -58 -8 -7 -15 -25 -15 -41 0 -16 -3
-29 -7 -29 -5 0 -28 18 -53 40 l-45 39 35 35 c42 41 47 42 77 14z m151 -167
c51 -60 92 -112 92 -115 0 -3 -11 -6 -24 -6 -33 0 -67 30 -80 70 -9 28 -19 36
-61 49 l-50 16 -3 48 c-5 76 21 63 126 -62z m149 -182 c42 -46 146 -194 199
-282 34 -55 44 -81 36 -89 -15 -15 -28 -4 -74 68 -23 38 -46 63 -53 60 -17 -6
-35 14 -35 40 0 15 -8 24 -25 28 -26 7 -35 41 -12 49 8 3 5 13 -11 36 -46 63
-72 104 -72 112 0 18 21 8 47 -22z m-2350 -155 c54 -47 118 -97 143 -111 25
-14 75 -43 112 -65 61 -35 396 -282 486 -358 20 -17 199 -138 398 -269 199
-131 364 -246 367 -255 4 -9 17 -16 29 -16 36 1 168 -72 168 -92 0 -20 10 -28
160 -120 63 -39 131 -84 150 -100 47 -40 359 -237 638 -405 125 -74 241 -150
258 -169 21 -23 40 -34 58 -34 16 0 37 -11 52 -27 27 -29 37 -35 144 -89 108
-53 109 -61 27 -118 -64 -44 -419 -206 -467 -213 -19 -3 -42 -12 -50 -19 -26
-22 -157 -74 -188 -74 -16 0 -49 -14 -75 -31 -67 -44 -80 -38 -89 40 -4 34
-14 73 -22 86 -8 12 -19 37 -23 56 -12 46 -29 47 -43 2 -21 -62 -90 -193 -105
-200 -8 -3 -15 -12 -15 -21 0 -22 -40 -62 -61 -62 -10 0 -31 12 -48 26 l-31
26 0 -26 c0 -30 -15 -33 -65 -11 -21 8 -39 25 -45 40 -6 15 -19 29 -29 32 -11
3 -22 15 -26 26 l-6 22 -9 -22 c-7 -16 -17 -21 -43 -20 -36 1 -187 -69 -187
-87 0 -5 7 -18 17 -28 15 -17 15 -18 -8 -18 -29 1 -45 13 -82 63 -24 32 -31
36 -48 26 -25 -13 -20 -16 -53 48 -31 62 -41 70 -55 44 -16 -28 -14 -45 10
-85 18 -31 24 -34 41 -25 14 7 23 7 34 -2 36 -30 -2 -54 -41 -25 -11 8 -25 12
-31 9 -7 -2 -30 12 -53 32 -22 20 -53 40 -68 44 -22 6 -28 13 -26 34 1 18 -4
27 -20 31 -35 9 -38 7 -27 -13 25 -47 -7 -57 -44 -15 -18 22 -26 25 -41 17
-14 -8 -27 -7 -52 5 -41 20 -42 37 -3 57 25 13 29 19 20 35 -13 25 -27 33 -35
20 -3 -5 -18 -7 -32 -4 -28 7 -28 11 -7 -56 4 -13 2 -20 -6 -20 -20 0 -180 92
-204 117 -11 13 -26 23 -32 23 -32 0 -326 275 -355 333 -11 20 -26 37 -33 37
-8 0 -45 35 -83 78 -97 112 -107 123 -152 165 -91 86 -329 407 -424 572 -55
95 -121 249 -173 406 -34 100 -38 126 -39 210 0 91 2 99 39 175 34 69 58 97
180 219 78 77 157 161 175 188 19 26 38 47 42 47 4 0 51 -39 106 -86z m831
-502 c4 -24 -9 -28 -39 -11 -17 8 -18 13 -8 25 17 21 43 13 47 -14z m2090
-152 c141 -202 144 -209 136 -269 -4 -29 -12 -52 -21 -55 -22 -9 -53 16 -53
44 0 14 -7 34 -15 44 -8 11 -15 28 -15 38 0 11 -7 18 -20 18 -11 0 -40 18 -64
40 -24 22 -48 40 -53 40 -6 0 -16 7 -23 15 -9 11 -8 19 4 37 25 35 19 57 -19
79 -60 36 -70 70 -27 94 55 30 69 20 170 -125z m3222 -30 c0 -38 -91 -54 -98
-17 -4 19 27 35 71 36 21 1 27 -4 27 -19z m-1550 -90 c0 -20 -25 -38 -36 -27
-8 7 15 47 26 47 6 0 10 -9 10 -20z m-256 -103 c8 -12 7 -20 -2 -29 -10 -10
-15 -10 -22 2 -14 21 -12 52 2 48 6 -2 16 -12 22 -21z m1432 -21 l44 -45 -34
-26 c-45 -34 -71 -30 -71 12 0 19 -9 41 -24 56 -27 29 -21 47 15 47 17 0 41
-15 70 -44z m-1206 0 c5 -15 22 -29 43 -35 45 -15 80 -53 75 -83 -3 -21 -9
-23 -65 -26 -51 -2 -63 -6 -68 -22 -4 -11 -10 -20 -15 -20 -5 0 -22 -11 -38
-25 -22 -18 -29 -31 -25 -46 5 -19 11 -21 52 -16 80 8 97 -16 32 -45 -42 -20
-67 -23 -76 -8 -3 6 -12 10 -20 10 -11 0 -11 -5 1 -29 14 -29 10 -61 -8 -61
-5 0 -8 -12 -6 -26 2 -20 12 -29 42 -39 21 -8 46 -21 55 -30 15 -15 14 -17 -4
-31 -16 -12 -40 -14 -112 -9 -85 5 -94 4 -105 -15 -13 -21 -38 -27 -38 -10 0
26 36 81 57 86 21 6 23 10 17 53 -5 43 2 73 25 111 6 8 12 27 15 42 4 15 12
33 19 40 24 27 37 58 37 92 0 18 6 39 14 45 8 7 18 27 21 44 15 70 57 100 75
53z m-1448 -43 c21 -24 29 -55 19 -72 -14 -22 -39 -5 -50 35 -15 53 1 71 31
37z m1683 -63 c7 -11 -23 -40 -39 -40 -8 0 -20 7 -27 16 -11 14 -11 18 4 29
18 13 53 10 62 -5z m1005 -25 c0 -42 -25 -71 -47 -53 -18 15 -10 68 14 85 23
17 33 7 33 -32z m-330 23 c-1 -34 -53 -66 -76 -47 -22 18 -17 36 14 47 38 14
62 14 62 0z m-1192 -22 c3 -12 -1 -17 -10 -14 -7 3 -15 13 -16 22 -3 12 1 17
10 14 7 -3 15 -13 16 -22z m-348 -16 c0 -11 -4 -20 -10 -20 -5 0 -10 9 -10 20
0 11 5 20 10 20 6 0 10 -9 10 -20z m-780 -34 c5 -13 20 -26 35 -30 31 -8 66
-61 159 -237 79 -150 153 -322 206 -477 40 -119 41 -145 0 -135 -22 6 -80 102
-80 132 0 11 -10 26 -22 32 -39 20 -67 50 -73 81 -4 18 -16 33 -31 39 -14 5
-30 22 -35 39 -11 31 -23 38 -34 19 -5 -7 -14 -4 -26 7 -14 13 -17 25 -13 53
4 31 -1 46 -40 105 -51 77 -57 106 -24 121 12 6 23 15 25 21 4 11 -87 54 -113
54 -20 0 -31 28 -38 104 -6 59 -5 68 9 62 8 -3 22 -9 30 -12 11 -5 15 1 15 20
0 35 37 36 50 2z m2500 -6 c0 -11 -4 -20 -10 -20 -5 0 -10 2 -10 4 0 2 -3 11
-6 20 -4 11 -1 16 10 16 9 0 16 -8 16 -20z m-57 3 c9 -9 -12 -33 -29 -33 -17
0 -18 27 -1 33 18 8 23 8 30 0z m-555 -41 c3 -9 -2 -13 -14 -10 -9 1 -19 9
-22 16 -3 9 2 13 14 10 9 -1 19 -9 22 -16z m812 5 c0 -19 -21 -37 -42 -37 -21
0 -24 20 -6 38 16 16 48 15 48 -1z m-2852 -30 c3 -22 -1 -27 -17 -27 -15 0
-21 6 -21 23 0 46 33 49 38 4z m2492 9 c0 -18 -17 -29 -30 -21 -8 5 -7 11 1
21 15 18 29 18 29 0z m218 -10 c-4 -21 -1 -24 34 -29 22 -3 43 -8 46 -12 9 -9
-20 -56 -43 -69 -11 -6 -31 -19 -46 -28 -30 -20 -54 -9 -46 21 8 34 -11 35
-28 1 -9 -17 -13 -40 -9 -55 5 -22 1 -27 -41 -45 -52 -22 -90 -26 -101 -9 -3
6 -1 16 5 22 7 7 7 14 0 24 -17 20 -4 38 37 51 37 12 148 102 125 102 -20 0
-11 19 17 34 40 22 55 20 50 -8z m-1754 -12 c3 -9 6 -25 6 -36 0 -25 -33 -21
-38 5 -8 38 19 64 32 31z m1536 -59 c0 -9 -7 -18 -16 -22 -18 -7 -39 11 -30
26 11 17 46 13 46 -4z m-9277 -326 c232 -161 432 -301 445 -312 27 -25 32 -97
7 -97 -9 0 -18 7 -21 15 -8 19 -38 19 -54 0 -7 -8 -10 -27 -7 -41 6 -31 -12
-94 -27 -94 -13 0 -211 167 -344 290 -110 101 -260 266 -344 379 -33 45 -64
81 -70 81 -12 0 -1 -54 19 -93 19 -39 11 -44 -37 -22 -58 26 -73 47 -65 87 8
36 50 98 66 98 6 0 200 -131 432 -291z m9102 252 c0 -19 -8 -27 -34 -36 -50
-16 -22 -28 34 -14 25 6 49 9 53 5 9 -9 -9 -36 -40 -59 -34 -26 -202 -47 -221
-28 -15 15 6 31 44 31 31 0 81 36 77 55 -4 17 53 73 72 71 9 -1 15 -11 15 -25z
m-570 -36 c0 -5 -10 -11 -22 -13 -16 -2 -23 2 -23 13 0 11 7 15 23 13 12 -2
22 -7 22 -13z m-57 -41 c42 -12 21 -44 -29 -44 -24 0 -37 29 -18 41 17 10 18
10 47 3z m302 -9 c0 -10 -10 -15 -30 -15 -29 0 -38 9 -23 23 13 13 53 7 53 -8z
m560 -44 c0 -5 -7 -14 -15 -21 -12 -10 -19 -10 -28 -1 -9 9 -9 14 3 21 19 12
40 13 40 1z m-393 -38 c8 -23 -56 -46 -108 -39 -31 4 -48 3 -51 -5 -10 -31
-163 -59 -163 -30 0 27 52 51 155 70 115 21 161 22 167 4z m-1547 -73 c30 -30
26 -59 -12 -75 -20 -8 -37 -10 -44 -4 -12 10 -7 68 8 87 14 17 25 15 48 -8z
m910 -35 c0 -9 -7 -18 -16 -22 -18 -7 -39 11 -30 26 11 17 46 13 46 -4z m158
4 c-2 -6 -8 -10 -13 -10 -5 0 -11 4 -13 10 -2 6 4 11 13 11 9 0 15 -5 13 -11z
m-8894 -20 c35 -27 73 -99 52 -99 -16 0 -96 91 -96 109 0 17 14 13 44 -10z
m8596 6 c0 -16 -20 -19 -57 -9 -37 10 -26 24 17 24 29 0 40 -4 40 -15z m988 3
c-3 -7 -11 -13 -18 -13 -7 0 -15 6 -17 13 -3 7 4 12 17 12 13 0 20 -5 18 -12z
m-403 -58 c0 -21 -8 -28 -55 -43 -61 -21 -100 -16 -100 12 0 13 16 25 53 39
69 28 102 25 102 -8z m-177 -4 c2 -10 1 -28 -2 -42 -6 -21 -12 -24 -51 -24
-47 0 -49 3 -36 50 10 38 83 51 89 16z m-1085 -13 c25 -29 67 -115 61 -125 -3
-5 -15 -6 -27 -3 -21 6 -21 5 -3 -9 21 -17 15 -46 -8 -46 -9 0 -20 -9 -26 -20
-6 -11 -16 -18 -21 -14 -19 11 -110 209 -99 212 6 2 22 -3 35 -12 32 -21 45
-20 45 2 0 35 19 41 43 15z m-7742 -79 c96 -84 102 -91 95 -103 -5 -8 -15 -7
-34 3 -36 19 -152 128 -152 144 0 25 29 11 91 -44z m6777 44 c14 -14 16 -48 3
-48 -22 0 -41 13 -41 29 0 31 18 39 38 19z m1714 -4 c15 -10 8 -33 -12 -39
-49 -15 -114 23 -79 46 13 9 74 4 91 -7z m218 6 c0 -6 -11 -16 -25 -22 -19 -9
-24 -18 -22 -42 2 -25 -3 -32 -26 -40 -37 -13 -47 0 -40 51 4 34 11 44 32 52
35 13 81 13 81 1z m-405 -10 c3 -5 33 -19 65 -31 59 -21 70 -31 50 -44 -7 -4
-8 -24 -4 -50 5 -37 3 -45 -14 -54 -34 -18 -73 -14 -79 9 -3 11 -20 24 -39 30
-32 11 -74 56 -74 80 0 6 12 24 28 40 27 29 56 38 67 20z m1963 -61 c14 -6 22
-17 22 -33 0 -14 5 -37 10 -52 l11 -27 42 41 c39 39 45 41 62 28 17 -12 20
-25 18 -75 l-2 -61 34 0 c18 0 37 -5 40 -10 4 -6 18 1 33 17 l28 27 -42 41
c-23 23 -49 45 -59 48 -26 11 -12 32 23 35 18 2 32 7 32 13 0 10 66 11 125 1
37 -7 42 -11 75 -77 34 -69 60 -89 83 -66 7 7 -1 23 -27 51 -42 47 -42 64 0
68 39 4 56 -16 84 -100 16 -49 28 -68 40 -68 10 0 28 -9 41 -19 16 -12 34 -17
51 -14 21 4 30 -2 55 -39 17 -25 38 -44 51 -46 31 -5 28 3 -23 60 -25 28 -45
54 -45 59 0 19 28 7 60 -26 24 -24 43 -35 63 -35 l29 0 -4 -57 c-7 -80 5 -108
53 -127 22 -9 51 -16 65 -16 17 0 43 -17 79 -51 30 -28 59 -48 65 -44 6 3 25
-6 42 -20 41 -34 49 -16 14 30 -47 62 -31 74 25 19 l38 -37 36 17 c26 13 43
15 63 8 23 -7 27 -14 28 -48 0 -21 10 -83 23 -136 18 -76 27 -98 40 -98 41 0
54 -46 21 -75 -26 -23 -25 -33 2 -63 l23 -23 -24 -18 c-18 -14 -22 -23 -16
-42 5 -13 8 -33 9 -44 1 -20 12 -24 119 -41 43 -8 66 -36 46 -60 -14 -17 -6
-29 16 -20 26 10 37 56 30 132 -6 62 -4 73 14 95 21 24 21 24 36 5 25 -32 15
-122 -24 -227 -20 -52 -216 -377 -245 -407 -10 -11 -19 -11 -34 -3 -30 16 -52
14 -52 -5 0 -9 -8 -30 -17 -47 -10 -18 -19 -33 -19 -35 -1 -2 -18 -5 -39 -8
-31 -4 -41 0 -63 24 -32 34 -63 52 -91 52 -17 0 -20 -5 -14 -30 4 -24 2 -30
-11 -30 -27 0 -300 74 -479 131 -265 83 -675 199 -703 199 -14 0 -23 -4 -20
-9 10 -16 421 -147 718 -230 177 -49 299 -88 317 -102 16 -12 34 -18 40 -15 6
4 20 2 32 -4 17 -9 20 -18 15 -40 -4 -24 -1 -30 17 -36 12 -4 36 -7 53 -5 26
1 35 -6 63 -44 36 -50 45 -54 61 -25 13 24 28 25 52 3 26 -23 22 -54 -12 -92
-17 -18 -27 -37 -24 -43 4 -6 10 -6 17 1 33 33 70 -25 56 -88 -4 -20 -10 -48
-14 -63 -3 -16 -11 -28 -19 -28 -22 0 -76 -31 -76 -44 0 -7 10 -12 22 -12 15
1 27 -8 37 -29 13 -26 12 -37 -2 -93 -23 -85 -87 -220 -141 -295 -79 -111
-234 -243 -441 -374 -89 -57 -288 -160 -332 -172 -15 -4 -131 -4 -257 0 -261
10 -297 17 -426 86 -157 84 -665 393 -745 453 -44 33 -157 132 -252 221 -155
144 -176 168 -209 234 -30 60 -41 74 -64 79 -55 10 -113 129 -79 163 7 7 5 21
-7 47 -14 28 -27 39 -56 46 -26 8 -45 22 -63 48 -28 41 -30 54 -13 81 9 15 9
25 0 45 -22 49 7 166 42 166 7 0 25 -18 40 -40 15 -23 38 -45 51 -50 17 -6 37
-35 66 -92 46 -92 78 -142 87 -134 2 3 -35 101 -83 217 l-89 212 22 17 c24 20
30 50 9 50 -7 0 -18 -5 -25 -12 -9 -9 -13 -8 -18 5 -10 27 0 51 26 64 30 15
29 19 -15 104 -47 91 -46 107 5 104 22 -1 46 -7 53 -14 12 -9 13 -7 9 14 -3
20 -1 24 12 19 17 -6 123 -213 128 -249 2 -15 -2 -19 -19 -17 -17 2 -20 -1
-16 -18 7 -26 23 -36 33 -20 16 25 36 0 119 -146 110 -196 172 -288 195 -292
17 -4 18 0 13 31 -3 20 -26 82 -50 139 -24 57 -54 126 -65 153 -11 28 -52 120
-91 205 -39 85 -71 165 -71 177 0 27 27 43 71 43 18 0 162 -25 320 -55 158
-30 293 -55 301 -54 28 1 -105 42 -305 94 -194 50 -246 69 -231 84 3 3 15 7
27 8 44 4 82 16 90 30 6 9 19 12 42 7 19 -3 50 -1 69 6 44 14 61 35 23 28 -14
-3 -31 -2 -36 2 -16 9 -2 70 15 70 8 0 14 8 14 19 0 10 7 24 15 31 19 16 19
29 0 36 -17 7 -75 -49 -75 -72 0 -19 -20 -18 -49 2 -22 16 -24 16 -33 0 -14
-25 -38 -19 -49 12 -5 15 -22 35 -37 45 -48 33 -67 68 -66 117 2 43 -1 47 -34
65 -20 11 -37 25 -39 31 -4 13 19 39 39 47 10 4 11 7 1 18 -33 34 7 109 58
109 18 0 29 5 29 13 0 8 11 19 24 25 22 10 24 16 20 63 -4 65 10 83 77 103 27
8 88 30 136 50 143 57 406 117 593 135 96 10 373 3 408 -10z m-1735 -18 c14
-14 13 -64 -1 -69 -9 -3 -13 2 -10 14 3 14 -5 22 -27 30 -16 6 -32 19 -34 29
-3 15 2 17 30 11 18 -3 37 -10 42 -15z m2405 -69 c2 -7 -3 -12 -12 -12 -9 0
-16 7 -16 16 0 17 22 14 28 -4z m-10131 -102 c7 -38 17 -44 43 -30 19 10 62
-14 353 -193 802 -493 1379 -772 1902 -920 145 -41 371 -95 467 -111 42 -8 58
-23 33 -32 -9 -4 -84 1 -167 10 -283 31 -715 114 -947 181 -286 82 -1015 391
-1108 469 -17 14 -36 26 -43 26 -20 0 -158 78 -242 137 -43 30 -119 78 -170
108 l-92 54 -1 100 0 100 -33 28 c-42 36 -58 103 -23 103 16 0 23 -8 28 -30z
m7998 10 c0 -22 -29 -18 -33 3 -3 14 1 18 15 15 10 -2 18 -10 18 -18z m2183
-2 c-6 -16 -36 -34 -44 -26 -3 4 -4 14 -1 23 7 17 51 21 45 3z m236 -15 c4 -5
24 -8 44 -8 30 0 37 -4 45 -28 11 -34 -5 -57 -38 -57 -22 0 -95 71 -95 92 0
10 34 11 44 1z m-2466 -35 c20 -20 14 -38 -12 -38 -27 0 -40 22 -23 39 14 14
20 14 35 -1z m-8046 -62 c5 -43 -19 -43 -31 0 -6 20 -8 41 -4 47 9 15 31 -15
35 -47z m10756 14 c32 -20 43 -52 21 -65 -5 -4 -14 -18 -19 -31 l-9 -23 -51
26 c-58 30 -65 55 -22 90 33 28 39 28 80 3z m-3823 -63 c0 -26 -20 -25 -23 2
-3 16 1 22 10 19 7 -3 13 -12 13 -21z m634 -26 c17 -11 6 -31 -18 -31 -25 0
-33 11 -20 27 13 15 19 16 38 4z m-279 -81 c-20 -12 -33 -1 -19 16 9 11 15 12
23 4 8 -8 7 -13 -4 -20z m-605 -121 c7 -22 -11 -43 -28 -32 -5 3 -18 -4 -30
-15 -35 -32 -69 -46 -115 -47 -33 -2 -50 -9 -76 -34 -22 -21 -38 -30 -50 -25
-32 12 -11 38 64 77 41 21 85 47 97 59 20 19 66 34 115 37 9 0 20 -9 23 -20z
m4482 -11 c26 -24 30 -55 9 -83 -25 -34 -46 -12 -46 50 0 30 3 55 7 55 4 0 17
-10 30 -22z m40 -181 c1 -49 -1 -57 -17 -57 -10 0 -28 9 -41 19 -23 18 -23 20
-6 38 9 11 17 26 17 35 0 20 11 29 30 26 11 -3 15 -18 17 -61z m41 -15 c2 -7
-3 -12 -12 -12 -9 0 -16 7 -16 16 0 17 22 14 28 -4z m-69 -66 c6 -7 29 -16 52
-19 46 -6 69 -22 69 -48 0 -21 -54 -35 -93 -25 -37 9 -77 45 -77 70 0 37 27
49 49 22z m-4319 -32 c0 -25 -2 -26 -36 -21 -43 7 -48 11 -41 32 4 9 19 15 42
15 31 0 35 -3 35 -26z m-1676 -20 c19 -18 13 -34 -14 -34 -16 0 -30 18 -30 41
0 14 27 10 44 -7z m2196 -19 c0 -16 -6 -25 -15 -25 -9 0 -15 9 -15 25 0 16 6
25 15 25 9 0 15 -9 15 -25z m642 9 c4 -3 8 -13 8 -24 0 -16 -6 -17 -42 -13
-54 7 -78 19 -78 40 0 13 8 14 52 9 28 -4 55 -9 60 -12z m-429 -19 c1 -5 -6
-11 -15 -13 -11 -2 -18 3 -18 13 0 17 30 18 33 0z m-969 -41 c18 -17 22 -69 6
-79 -16 -10 -50 14 -50 36 0 20 16 59 25 59 2 0 11 -7 19 -16z m934 -2 c2 -7
-3 -12 -12 -12 -9 0 -16 7 -16 16 0 17 22 14 28 -4z m3672 -110 c0 -24 -8 -32
-26 -25 -17 6 -18 30 -1 36 22 9 27 7 27 -11z m-3624 -74 c6 -4 19 -5 29 -2
11 5 22 1 29 -8 6 -8 21 -20 34 -27 12 -6 22 -20 22 -31 0 -22 -36 -32 -126
-32 -125 0 -133 3 -104 39 11 14 20 36 20 48 0 12 3 24 6 28 8 7 76 -3 90 -15z
m-1580 -47 c7 -23 22 -40 47 -52 20 -11 42 -28 49 -38 8 -11 26 -25 41 -30 31
-12 74 -89 64 -115 -5 -12 -21 -16 -67 -16 -64 0 -72 -6 -41 -34 14 -13 24
-15 38 -8 14 8 108 10 144 3 8 -1 29 -49 29 -68 0 -12 -7 -14 -32 -9 -18 3
-40 7 -48 7 -8 1 -25 11 -37 22 -13 11 -23 16 -24 11 0 -5 -2 -22 -2 -39 -2
-28 -5 -30 -57 -37 -30 -5 -104 -9 -165 -11 -60 -2 -119 -8 -130 -14 -11 -6
-54 -12 -95 -14 l-75 -4 -1 30 c0 17 -2 35 -3 40 -7 23 1 34 34 45 19 6 40 20
45 31 14 26 54 24 73 -3 15 -23 15 -23 37 -3 21 19 23 19 51 2 29 -16 30 -16
24 3 -8 24 20 39 38 21 6 -6 31 -11 55 -11 54 0 52 14 -6 53 -45 31 -53 57
-27 94 13 19 12 24 -8 54 -24 37 -47 85 -47 99 0 6 9 10 19 10 11 0 23 5 26
11 13 20 40 4 51 -30z m-151 -36 c0 -24 -24 -30 -49 -12 -25 18 -12 39 22 35
19 -2 27 -9 27 -23z m-145 -46 c0 -18 -48 -33 -64 -20 -18 15 -11 38 12 44 20
4 52 -10 52 -24z m1904 -34 c21 -31 34 -31 76 0 33 24 35 25 48 8 7 -10 12
-30 10 -44 -1 -14 7 -37 20 -54 15 -19 22 -39 20 -59 -2 -26 -8 -32 -32 -34
-18 -2 -36 4 -50 17 l-22 20 -13 -21 c-9 -14 -10 -23 -2 -31 6 -6 11 -17 11
-25 0 -8 11 -23 25 -34 25 -19 33 -52 16 -62 -11 -7 -118 63 -149 97 -38 41
-8 92 40 66 11 -6 22 -8 25 -5 9 9 -8 26 -26 26 -10 0 -26 9 -36 20 -10 11
-24 20 -31 20 -15 0 -54 52 -54 73 0 9 18 21 43 30 59 20 63 20 81 -8z m-2164
-80 c10 -12 8 -16 -14 -25 -17 -6 -27 -18 -28 -32 0 -13 -2 -29 -2 -36 -2 -23
-29 -32 -98 -32 -61 0 -69 -2 -84 -25 -9 -14 -14 -29 -10 -32 3 -4 40 -1 81 5
41 6 81 9 89 6 8 -3 27 3 43 14 23 17 39 19 96 15 62 -5 68 -7 65 -27 -2 -16
-13 -23 -45 -30 -36 -8 -43 -14 -43 -34 0 -13 -4 -20 -10 -17 -5 3 -19 1 -30
-5 -17 -9 -28 -7 -57 10 -32 19 -37 19 -53 5 -19 -17 -85 -20 -95 -4 -5 6 -13
3 -22 -11 -11 -15 -24 -20 -48 -18 -44 3 -48 -2 -32 -42 13 -29 15 -30 20 -10
4 17 12 21 34 18 25 -3 28 -7 28 -37 0 -44 -29 -65 -51 -37 -14 20 -14 20 -14
0 0 -26 11 -40 38 -48 28 -9 28 -30 1 -50 -21 -14 -21 -15 12 -21 19 -3 54 -5
78 -3 34 2 46 -1 55 -16 8 -14 8 -20 -1 -23 -7 -3 -13 -13 -13 -23 0 -29 -31
-40 -114 -40 -42 0 -76 -4 -76 -9 0 -9 72 -21 129 -21 39 0 81 -23 81 -44 0
-7 -10 -18 -22 -25 -23 -11 -23 -11 -1 -6 17 5 25 -1 39 -27 22 -43 19 -41 41
-30 11 6 24 8 30 4 28 -19 43 -87 24 -107 -5 -6 -11 -28 -13 -50 -3 -38 -5
-40 -40 -43 -21 -2 -38 -8 -38 -14 0 -10 41 -7 72 6 27 12 58 -27 58 -75 0
-41 0 -41 31 -35 40 8 79 -2 79 -21 0 -8 -9 -17 -20 -20 -11 -3 -20 -10 -20
-15 0 -6 7 -7 16 -4 9 4 29 -1 43 -11 14 -9 35 -17 45 -18 15 0 25 -13 37 -49
10 -26 20 -50 23 -53 3 -3 17 4 32 16 25 19 29 20 43 7 13 -14 13 -17 -1 -33
-8 -10 -18 -26 -21 -35 -4 -10 -11 -18 -17 -18 -20 0 -10 -27 15 -40 33 -18
42 -55 22 -89 -22 -38 -8 -56 45 -56 37 0 43 -3 46 -22 2 -15 -2 -23 -12 -23
-35 0 -29 -47 7 -52 19 -3 22 -9 22 -53 0 -27 -4 -61 -8 -75 l-8 -25 23 28
c28 32 47 34 79 8 22 -18 23 -21 11 -65 -6 -26 -12 -58 -12 -71 0 -14 -15 -56
-34 -93 -74 -148 -140 -304 -197 -471 -33 -96 -58 -179 -55 -185 2 -6 27 39
56 99 153 321 268 553 278 559 7 4 31 10 54 14 39 7 43 10 46 39 7 66 56 62
56 -4 1 -21 -2 -50 -6 -64 -7 -25 -5 -27 28 -34 22 -4 41 -2 47 4 8 8 25 -5
58 -42 l47 -52 31 35 c36 42 37 51 10 110 -12 25 -28 68 -36 95 -21 72 -39 95
-71 95 -35 0 -102 54 -102 82 0 12 34 80 76 151 91 154 200 378 279 575 32 78
62 142 67 142 36 0 128 -122 128 -169 0 -8 11 -10 35 -5 30 5 35 3 35 -12 0
-11 13 -26 29 -35 16 -9 35 -30 43 -45 7 -16 20 -29 28 -29 26 -1 40 -15 40
-43 0 -28 29 -94 54 -125 12 -16 17 -16 35 -5 18 11 24 9 57 -22 20 -19 51
-58 69 -85 55 -85 68 -86 34 -4 -16 41 -39 89 -49 107 -11 18 -20 40 -20 48 0
9 -16 35 -35 59 -34 41 -36 46 -29 96 11 79 56 114 88 67 21 -29 20 -31 -10
-67 l-26 -31 27 -10 c44 -17 67 -13 60 9 -4 12 0 23 10 28 14 8 14 14 4 36 -9
21 -9 30 1 42 20 24 40 18 40 -11 0 -15 11 -52 25 -83 29 -68 65 -206 65 -254
0 -20 16 -85 36 -146 37 -115 38 -141 6 -141 -34 0 -47 -26 -34 -64 7 -19 10
-40 7 -48 -3 -8 3 -22 14 -32 19 -17 20 -17 26 28 8 52 15 55 56 25 21 -15 29
-29 29 -50 0 -17 9 -47 20 -67 17 -32 84 -192 103 -245 12 -31 29 -7 26 37 -3
50 11 61 29 23 11 -23 11 -37 1 -78 -7 -27 -19 -49 -26 -49 -10 0 -13 -20 -13
-76 0 -68 -4 -85 -40 -162 -54 -115 -166 -280 -286 -425 -55 -64 -112 -136
-129 -159 -40 -55 -172 -144 -320 -217 -336 -165 -633 -193 -908 -85 -347 136
-457 177 -497 184 -25 4 -81 17 -125 28 -151 38 -244 53 -379 61 -117 6 -139
10 -158 28 -31 28 -55 39 -103 48 -43 7 -103 35 -148 69 -44 32 -254 262 -317
346 -201 271 -283 659 -196 929 47 143 265 554 421 791 96 146 234 326 299
389 l45 44 29 -24 c16 -13 38 -40 50 -59 l20 -35 11 28 c8 21 17 27 42 27 54
0 27 24 -44 39 -40 8 -68 20 -72 29 -8 22 151 175 255 243 184 122 305 166
340 124z m1019 -18 c13 -16 5 -27 -20 -27 -24 0 -35 20 -18 31 19 12 25 11 38
-4z m-954 -21 c20 -15 15 -46 -8 -46 -20 0 -40 27 -33 45 7 19 17 19 41 1z
m1035 -72 c13 -33 13 -34 -4 -34 -14 0 -26 21 -26 46 0 23 20 16 30 -12z m181
-48 c24 -80 -2 -113 -50 -62 -27 29 -24 60 6 64 19 3 21 8 16 35 -9 48 9 24
28 -37z m-341 10 c0 -15 -37 -32 -47 -22 -3 3 -3 12 0 21 8 19 47 20 47 1z
m52 -102 c19 -10 33 -12 37 -6 8 13 102 19 120 8 9 -6 10 -28 5 -85 -5 -66 -3
-87 16 -139 l23 -62 -23 -68 c-87 -259 -209 -559 -292 -712 -93 -174 -233
-400 -248 -400 -8 0 -37 20 -64 43 l-49 44 11 54 c6 30 14 65 17 79 10 38 -9
76 -42 84 -73 18 -93 60 -46 94 l27 19 -22 53 c-12 29 -22 63 -22 76 0 12 -5
26 -11 29 -5 4 -9 19 -8 33 4 57 -1 77 -23 87 -26 11 -27 28 -3 33 10 2 19 -5
22 -17 3 -12 12 -21 21 -21 8 0 23 -7 33 -16 16 -15 19 -14 33 15 19 35 27 38
161 46 55 3 116 10 135 14 29 8 21 9 -50 11 -47 2 -105 4 -130 4 -25 1 -82 3
-127 4 l-83 2 -14 33 c-8 17 -35 54 -60 81 l-46 49 20 44 c21 48 19 47 52 34
17 -6 29 -5 43 5 10 8 26 14 36 14 9 0 19 7 23 15 7 19 30 19 45 1 12 -15 22
-15 149 0 29 3 60 3 70 -1 9 -4 37 -8 62 -10 25 -1 54 -5 65 -8 12 -4 29 1 44
12 l24 19 -22 12 c-16 8 -31 9 -53 1 -23 -8 -38 -7 -65 4 -20 8 -50 15 -67 15
-17 0 -42 7 -54 16 -19 13 -28 14 -52 4 -18 -7 -57 -11 -95 -8 -62 4 -68 6
-100 43 -19 21 -35 41 -35 45 0 15 42 86 67 112 33 35 50 35 65 3 10 -22 17
-25 65 -25 l53 0 22 -45 c25 -50 26 -51 54 -30 18 14 18 16 2 29 -21 15 -23
37 -6 54 23 23 54 12 98 -33 50 -51 60 -55 60 -21 0 46 30 67 101 73 42 4 74
1 89 -7 18 -10 22 -9 18 2 -7 19 -129 61 -142 48 -17 -17 -32 -11 -44 15 -16
34 -16 33 16 37 22 2 27 8 28 31 1 16 7 33 15 38 18 11 15 12 51 -7z m-353
-40 c32 -27 38 -48 21 -74 -9 -13 -14 -11 -33 12 -13 15 -35 28 -52 30 -38 4
-46 34 -13 47 35 15 44 13 77 -15z m189 7 c1 -1 2 -6 2 -12 0 -16 -26 -39 -45
-39 -30 0 -85 29 -85 45 0 13 10 15 63 11 34 -2 63 -5 65 -5z m-421 -27 c38
-29 43 -60 11 -69 -13 -4 -31 -17 -40 -28 l-16 -21 -13 27 c-8 18 -20 27 -35
27 -18 0 -23 7 -27 38 -2 20 -2 40 0 45 10 18 87 6 120 -19z m-153 -10 c9 -25
7 -34 -9 -34 -12 0 -35 28 -35 44 0 14 38 5 44 -10z m2146 -219 c10 -13 11
-18 1 -28 -10 -9 -15 -8 -26 7 -23 31 1 50 25 21z m-2140 -14 c10 -20 -4 -41
-17 -27 -3 3 -12 1 -18 -4 -16 -13 -40 14 -31 35 8 22 53 19 66 -4z m1494 -83
c3 -13 6 -33 6 -44 0 -12 9 -33 21 -48 11 -14 17 -30 14 -36 -12 -20 -33 -9
-58 29 -15 22 -35 42 -47 46 -25 8 -27 44 -2 51 9 3 24 9 32 14 23 13 27 12
34 -12z m-1535 -12 c10 -12 8 -17 -8 -25 -26 -14 -78 -14 -87 1 -18 29 72 52
95 24z m1075 -12 c9 -3 16 -15 16 -26 0 -28 -34 -19 -38 10 -4 24 -2 25 22 16z
m-1076 -71 c-2 -8 -21 -21 -43 -29 -36 -12 -41 -12 -53 3 -7 10 -11 22 -9 27
9 26 110 25 105 -1z m-137 -82 c19 -43 22 -44 30 -23 4 12 11 22 14 22 3 0 15
-21 27 -46 l22 -47 -23 -18 c-27 -22 -54 -24 -68 -6 -15 18 -53 137 -53 165 0
21 2 23 15 12 8 -7 25 -33 36 -59z m161 -18 c27 -24 23 -53 -7 -53 -18 0 -26
7 -31 24 -6 24 1 46 13 46 4 0 15 -7 25 -17z m1546 -51 c4 -26 -22 -31 -32 -6
-10 26 -7 36 12 32 9 -2 18 -13 20 -26z m-308 -92 c16 -16 18 -25 10 -40 -13
-24 -37 -26 -62 -3 -23 20 -23 39 0 52 24 15 29 14 52 -9z m-1270 -25 c14 -17
7 -45 -12 -45 -17 1 -58 35 -58 49 0 16 56 13 70 -4z"/>
<path d="M9271 7881 c-1 -37 95 -456 141 -616 42 -145 59 -188 65 -168 4 12
-181 753 -197 788 -8 19 -9 18 -9 -4z"/>
<path d="M9260 7280 c0 -6 6 -21 14 -33 8 -12 14 -34 14 -49 -1 -30 29 -84 40
-73 14 14 -2 82 -29 122 -31 44 -39 51 -39 33z"/>
<path d="M9280 6950 c0 -5 5 -10 10 -10 6 0 10 5 10 10 0 6 -4 10 -10 10 -5 0
-10 -4 -10 -10z"/>
<path d="M9330 6895 c-10 -12 -10 -15 3 -15 9 0 25 -13 37 -30 19 -27 50 -41
50 -22 0 16 -51 82 -64 82 -8 0 -19 -7 -26 -15z"/>
<path d="M9195 6700 c-4 -6 -3 -16 3 -22 6 -6 12 -6 17 2 4 6 3 16 -3 22 -6 6
-12 6 -17 -2z"/>
<path d="M10004 6635 c-10 -8 -31 -15 -46 -15 -33 0 -44 -15 -21 -29 19 -10
60 6 83 34 18 21 8 28 -16 10z"/>
<path d="M10169 6611 c-13 -11 -21 -23 -17 -26 9 -9 58 21 58 35 0 15 -15 12
-41 -9z"/>
<path d="M9060 6553 c0 -23 22 -83 30 -83 12 0 24 46 15 59 -8 15 -45 34 -45
24z"/>
<path d="M10020 6520 c0 -5 12 -10 26 -10 14 0 23 4 19 10 -3 6 -15 10 -26 10
-10 0 -19 -4 -19 -10z"/>
<path d="M9708 6482 c-60 -19 -62 -31 -5 -22 47 7 67 16 67 31 0 11 -1 11 -62
-9z"/>
<path d="M9462 6389 c5 -48 4 -53 -23 -68 -43 -25 -47 -58 -9 -93 17 -15 37
-28 44 -28 6 0 27 16 46 35 18 19 49 40 67 46 43 14 43 39 -2 73 -19 15 -35
33 -35 41 0 19 -39 45 -68 45 -23 0 -24 -2 -20 -51z"/>
<path d="M10736 6367 c-17 -25 -17 -29 -2 -46 23 -25 20 -48 -9 -73 -29 -25
-31 -34 -9 -42 24 -9 41 9 48 53 3 21 13 44 21 51 16 13 20 31 8 29 -23 -4
-32 4 -35 29 l-3 27 -19 -28z"/>
<path d="M10433 6366 l-41 -11 19 -24 20 -25 31 31 c35 36 28 43 -29 29z"/>
<path d="M9745 6324 c-9 -14 -14 -28 -11 -31 8 -9 46 27 46 44 0 21 -16 15
-35 -13z"/>
<path d="M9916 6286 c-28 -24 -28 -24 -7 -31 30 -9 83 13 79 34 -5 25 -40 23
-72 -3z"/>
<path d="M9816 6214 c-4 -9 -4 -19 -1 -22 2 -3 7 3 11 12 4 9 4 19 1 22 -2 3
-7 -3 -11 -12z"/>
<path d="M10337 6123 c-4 -3 -7 -11 -7 -17 0 -6 5 -5 12 2 6 6 9 14 7 17 -3 3
-9 2 -12 -2z"/>
<path d="M8406 5141 c-4 -6 -16 -11 -27 -11 -26 0 -24 -17 2 -25 27 -9 59 19
42 36 -8 8 -13 8 -17 0z"/>
<path d="M5455 7830 c3 -5 8 -10 11 -10 2 0 4 5 4 10 0 6 -5 10 -11 10 -5 0
-7 -4 -4 -10z"/>
<path d="M6076 7519 c3 -6 -2 -19 -11 -29 -14 -16 -15 -23 -6 -34 7 -9 10 -28
6 -48 -5 -29 -2 -37 29 -67 l36 -35 0 37 c0 26 4 37 15 37 19 0 35 -31 35 -67
0 -16 9 -69 20 -119 11 -49 20 -106 20 -126 0 -20 3 -39 8 -42 10 -6 34 14 61
53 22 30 23 37 12 68 -9 23 -10 38 -3 45 5 5 7 27 5 49 -5 36 -4 39 18 39 18
0 20 3 11 12 -7 7 -12 23 -12 37 0 32 -127 158 -168 166 -15 3 -40 12 -55 20
-15 8 -25 10 -21 4z"/>
<path d="M5870 6397 c0 -13 9 -32 20 -42 24 -22 26 -6 5 35 -19 36 -25 38 -25
7z"/>
<path d="M7035 6228 c-4 -10 -4 -26 0 -35 8 -17 8 -17 12 0 3 9 3 25 0 35 -4
16 -4 16 -12 0z"/>
<path d="M6001 6194 c0 -11 3 -14 6 -6 3 7 2 16 -1 19 -3 4 -6 -2 -5 -13z"/>
<path d="M6014 6074 c17 -45 18 -64 2 -64 -9 0 -16 4 -16 9 0 5 -9 12 -19 16
-11 3 -23 15 -26 26 -4 12 -14 19 -23 17 -14 -3 -17 -16 -18 -73 -1 -81 -16
-94 -59 -51 -30 30 -35 32 -35 12 0 -23 67 -88 87 -84 9 2 23 14 30 28 7 14
18 29 26 35 7 5 16 18 20 27 3 10 18 20 32 24 14 3 25 12 25 19 0 30 -13 75
-22 75 -6 0 -7 -7 -4 -16z"/>
<path d="M6440 5791 c0 -12 5 -21 10 -21 6 0 10 6 10 14 0 8 -4 18 -10 21 -5
3 -10 -3 -10 -14z"/>
<path d="M6480 5640 c0 -11 5 -20 10 -20 6 0 10 9 10 20 0 11 -4 20 -10 20 -5
0 -10 -9 -10 -20z"/>
<path d="M6936 5451 c3 -3 20 -11 37 -17 26 -9 31 -16 29 -38 -2 -20 2 -26 18
-26 25 0 25 2 0 50 -18 35 -24 39 -55 38 -19 -1 -32 -4 -29 -7z"/>
<path d="M5323 5924 c5 -53 20 -84 38 -84 12 0 0 111 -14 128 -21 27 -30 11
-24 -44z"/>
<path d="M5370 4591 c-5 -11 -10 -30 -10 -43 1 -20 2 -21 11 -5 5 9 16 17 24
17 18 0 26 14 19 34 -8 22 -31 20 -44 -3z"/>
<path d="M5468 4453 c-4 -16 -16 -21 -57 -25 -29 -3 -57 -10 -63 -16 -18 -18
-3 -24 25 -11 43 20 57 7 57 -56 0 -59 1 -60 30 -45 16 9 18 14 9 34 -14 30 3
66 31 66 26 0 25 9 -3 44 -22 27 -24 28 -29 9z"/>
<path d="M6003 4174 c-4 -10 1 -22 12 -30 23 -17 28 -13 19 20 -7 29 -22 34
-31 10z"/>
<path d="M6599 4151 l-24 -20 25 -9 c14 -5 25 -9 26 -8 1 0 4 13 8 29 8 32 -3
34 -35 8z"/>
<path d="M6080 4111 c0 -5 7 -11 15 -15 9 -3 15 0 15 9 0 8 -7 15 -15 15 -8 0
-15 -4 -15 -9z"/>
<path d="M7670 5522 c0 -5 11 -19 25 -32 26 -24 33 -14 15 21 -11 19 -40 27
-40 11z"/>
<path d="M7814 5306 c-3 -8 -1 -23 5 -33 9 -15 10 -13 11 15 0 34 -7 42 -16
18z"/>
<path d="M9686 4725 c-10 -28 -7 -53 9 -59 8 -3 15 -13 15 -22 0 -8 6 -14 13
-11 7 2 12 22 11 53 -1 41 -4 49 -21 52 -12 2 -23 -4 -27 -13z"/>
<path d="M9730 4520 c0 -5 5 -10 10 -10 6 0 10 5 10 10 0 6 -4 10 -10 10 -5 0
-10 -4 -10 -10z"/>
<path d="M9536 4351 c-7 -10 62 -66 71 -57 5 5 -50 66 -61 66 -2 0 -7 -4 -10
-9z"/>
<path d="M9782 4348 c6 -18 28 -21 28 -4 0 9 -7 16 -16 16 -9 0 -14 -5 -12
-12z"/>
<path d="M10320 4263 c-19 -9 -30 -18 -23 -20 11 -4 73 23 73 32 0 8 -12 5
-50 -12z"/>
<path d="M9861 4242 c-35 -65 27 -94 90 -44 l23 19 -25 16 c-43 28 -76 31 -88
9z"/>
<path d="M10670 4200 c-13 -9 -13 -10 0 -10 8 0 22 5 30 10 13 9 13 10 0 10
-8 0 -22 -5 -30 -10z"/>
<path d="M10015 4120 c-47 -22 -77 -24 -93 -8 -17 17 -24 4 -13 -26 9 -21 17
-26 45 -26 18 0 39 7 46 15 7 8 18 15 24 15 12 1 56 35 56 44 0 10 -24 5 -65
-14z"/>
<path d="M10452 4111 c-62 -27 -90 -46 -81 -55 6 -6 158 59 173 74 19 19 -27
9 -92 -19z"/>
<path d="M10855 4040 c-76 -25 -351 -95 -430 -110 -91 -17 -96 -23 -25 -30 36
-4 70 -3 75 0 6 4 53 19 105 34 153 44 244 74 301 100 65 30 55 32 -26 6z"/>
<path d="M10298 4043 c-21 -5 -24 -23 -5 -23 7 0 22 7 33 15 20 15 9 18 -28 8z"/>
<path d="M10125 3990 c-18 -7 -19 -8 -2 -15 20 -8 47 0 47 15 0 12 -17 12 -45
0z"/>
<path d="M10725 3790 c-7 -12 12 -50 25 -50 16 0 11 47 -5 53 -8 4 -17 2 -20
-3z"/>
<path d="M9206 3740 c8 -31 24 -50 24 -29 0 8 -7 24 -16 35 -14 18 -15 18 -8
-6z"/>
<path d="M9330 3458 c0 -7 9 -24 20 -38 l20 -25 -11 33 c-12 34 -29 52 -29 30z"/>
<path d="M12051 3286 c-9 -10 -6 -17 12 -29 23 -15 24 -15 19 9 -6 31 -17 38
-31 20z"/>
<path d="M9160 3020 c0 -5 5 -10 10 -10 6 0 10 5 10 10 0 6 -4 10 -10 10 -5 0
-10 -4 -10 -10z"/>
<path d="M9250 2831 c0 -13 38 -81 45 -81 8 0 -18 66 -31 80 -11 11 -14 12
-14 1z"/>
<path d="M7262 3594 c17 -35 20 -48 11 -51 -7 -3 -13 -11 -13 -19 0 -20 40
-17 46 4 3 9 10 25 15 35 11 20 4 28 -54 62 l-27 16 22 -47z"/>
<path d="M6388 3033 c7 -3 16 -2 19 1 4 3 -2 6 -13 5 -11 0 -14 -3 -6 -6z"/>
<path d="M6175 3000 c3 -5 11 -10 16 -10 6 0 7 5 4 10 -3 6 -11 10 -16 10 -6
0 -7 -4 -4 -10z"/>
<path d="M6221 2916 c-7 -9 -29 -18 -50 -22 -63 -10 -69 -14 -41 -29 17 -9 29
-10 37 -4 6 6 27 7 47 4 46 -9 118 31 89 48 -26 15 -71 17 -82 3z"/>
<path d="M6402 2808 c5 -15 37 -18 41 -3 1 6 -9 12 -22 13 -16 3 -22 -1 -19
-10z"/>
<path d="M6241 2773 c0 -5 4 -17 9 -28 8 -18 9 -17 9 8 1 15 -3 27 -9 27 -5 0
-10 -3 -9 -7z"/>
<path d="M6507 2543 c-25 -25 20 -31 68 -8 l30 13 -46 1 c-25 1 -49 -2 -52 -6z"/>
<path d="M6320 2495 c-12 -14 -11 -21 5 -51 10 -19 22 -34 27 -34 12 0 9 40
-5 74 -11 26 -14 27 -27 11z"/>
<path d="M6585 2450 c-6 -10 35 -73 43 -66 2 3 -1 21 -8 40 -12 36 -23 45 -35
26z"/>
<path d="M8057 2424 c-10 -11 -9 -94 2 -94 5 0 12 7 15 15 12 31 45 -3 64 -67
11 -35 22 -56 26 -49 4 6 1 30 -8 54 -8 23 -17 59 -21 80 -5 31 -10 37 -30 37
-13 0 -28 7 -33 15 -4 9 -11 12 -15 9z"/>
<path d="M6480 2390 c0 -5 5 -10 10 -10 6 0 10 5 10 10 0 6 -4 10 -10 10 -5 0
-10 -4 -10 -10z"/>
<path d="M6580 2284 c0 -31 23 -28 28 4 2 15 -2 22 -12 22 -11 0 -16 -9 -16
-26z"/>
<path d="M6646 2215 c4 -9 11 -14 16 -13 15 5 11 23 -6 26 -11 2 -14 -2 -10
-13z"/>
<path d="M7980 2115 c0 -8 5 -15 10 -15 6 0 10 7 10 15 0 8 -4 15 -10 15 -5 0
-10 -7 -10 -15z"/>
<path d="M6608 2104 c-5 -5 19 -92 28 -103 2 -2 10 2 19 9 18 15 40 1 50 -31
9 -28 22 -23 29 13 5 23 1 37 -13 52 -10 12 -24 31 -30 44 -9 16 -21 22 -45
22 -18 0 -35 -3 -38 -6z"/>
<path d="M7720 2072 c0 -5 12 -19 26 -33 15 -13 48 -57 75 -96 27 -40 54 -73
59 -73 43 0 -11 102 -81 155 -69 52 -79 58 -79 47z"/>
<path d="M6880 1986 c0 -9 7 -19 15 -23 25 -9 27 2 5 22 -18 17 -20 17 -20 1z"/>
<path d="M7594 1985 c-4 -8 1 -27 10 -41 10 -13 14 -33 11 -43 -8 -26 23 -92
46 -98 21 -6 25 -23 8 -40 -15 -15 17 -90 43 -97 12 -3 25 -3 30 0 13 8 9 36
-7 54 -8 9 -16 31 -17 50 -3 32 -1 35 22 34 14 -1 33 -4 42 -8 16 -7 16 -5 2
38 -9 26 -23 48 -34 51 -11 3 -30 24 -42 47 -32 57 -101 89 -114 53z"/>
<path d="M6937 1934 c-22 -23 4 -134 32 -134 14 0 16 7 13 35 -5 40 18 56 49
36 22 -13 22 -11 10 22 -6 15 -20 26 -38 30 -15 3 -35 8 -44 12 -8 3 -18 2
-22 -1z"/>
<path d="M6660 1852 c0 -12 19 -26 26 -19 2 2 -2 10 -11 17 -9 8 -15 8 -15 2z"/>
<path d="M6727 1789 c-10 -28 -17 -53 -15 -55 16 -16 85 76 73 96 -16 26 -41
8 -58 -41z"/>
<path d="M7001 1775 c3 -13 18 -25 43 -33 46 -15 62 -8 20 8 -16 6 -37 19 -48
28 -17 16 -18 16 -15 -3z"/>
<path d="M6836 1543 c-11 -12 -6 -69 8 -88 13 -18 15 -18 39 11 24 26 25 30
10 39 -9 6 -24 18 -34 27 -9 9 -20 14 -23 11z"/>
<path d="M8832 1378 c-15 -15 -16 -58 -2 -58 16 0 35 49 24 60 -7 7 -14 6 -22
-2z"/>
<path d="M7185 3010 c-30 -20 -39 -41 -20 -46 6 -2 23 8 40 21 39 32 23 53
-20 25z"/>
<path d="M7471 2771 c-21 -13 42 -43 82 -39 27 3 29 5 12 12 -19 7 -64 27 -75
33 -3 1 -11 -1 -19 -6z"/>
</g>
</svg>
